<svg version="1.1" id="Layer_1" xmlns="http://www.w3.org/2000/svg" xmlns:xlink="http://www.w3.org/1999/xlink" x="0px" y="0px"
	 width="100%" viewBox="0 0 500 500" enable-background="new 0 0 500 500" xml:space="preserve">
<path fill="#eff6ff" opacity="1.000000" stroke="none" 
	d="
M286.000000,501.000000 
	C190.666687,501.000000 95.833382,501.000000 1.000051,501.000000 
	C1.000034,334.333405 1.000034,167.666794 1.000017,1.000140 
	C167.666565,1.000094 334.333130,1.000094 500.999756,1.000047 
	C500.999847,167.666519 500.999847,334.333038 500.999939,500.999786 
	C429.500000,501.000000 358.000000,501.000000 286.000000,501.000000 
M230.989594,459.574951 
	C267.968201,462.268707 303.650177,457.450012 337.640198,441.856476 
	C426.701691,400.997925 476.625824,305.406097 455.894958,207.647614 
	C428.775635,79.763687 293.767670,5.945991 170.426590,58.054192 
	C88.314476,92.744293 45.280331,158.068924 41.902943,247.794067 
	C40.096397,295.787476 54.815632,339.171539 83.853699,377.199615 
	C120.664101,425.406311 169.666855,452.776184 230.989594,459.574951 
z"/>
<path fill="#2C365D" opacity="1.000000" stroke="none" 
	d="
M230.537231,459.498047 
	C169.666855,452.776184 120.664101,425.406311 83.853699,377.199615 
	C54.815632,339.171539 40.096397,295.787476 41.902943,247.794067 
	C45.280331,158.068924 88.314476,92.744293 170.426590,58.054192 
	C293.767670,5.945991 428.775635,79.763687 455.894958,207.647614 
	C476.625824,305.406097 426.701691,400.997925 337.640198,441.856476 
	C303.650177,457.450012 267.968201,462.268707 230.537231,459.498047 
M216.500183,153.467484 
	C206.501556,153.471069 196.500885,153.353287 186.505066,153.522400 
	C180.199112,153.629074 178.559174,155.455612 178.527084,161.700012 
	C178.477402,171.365112 178.352844,181.034927 178.612885,190.693222 
	C178.684570,193.355728 179.469711,196.313141 180.847626,198.574585 
	C188.811234,211.644455 197.054565,224.543839 205.188354,237.510254 
	C205.820862,238.518539 206.339844,239.598053 207.105194,240.998749 
	C199.949844,240.998749 193.452332,240.953201 186.955750,241.011475 
	C180.386459,241.070419 178.526291,242.866714 178.522476,249.251434 
	C178.499252,288.246124 178.498703,327.240784 178.519608,366.235474 
	C178.523132,372.813812 180.490875,374.771820 187.241791,374.819763 
	C197.573196,374.893158 207.906052,374.903564 218.237228,374.815002 
	C224.703400,374.759613 226.920181,372.449036 226.923279,366.081512 
	C226.935242,341.584839 226.928177,317.088196 226.928192,292.591522 
	C226.928192,290.825439 226.928177,289.059387 226.928177,287.001434 
	C235.650772,287.001434 243.812729,287.389526 251.921097,286.896393 
	C260.687164,286.363281 269.576996,285.783203 278.110138,283.872070 
	C310.148102,276.696503 328.765472,256.878784 331.295593,226.097412 
	C333.334198,201.296219 325.112183,180.544403 303.004395,166.858032 
	C290.424530,159.070175 276.558746,154.934723 261.961090,154.115067 
	C247.175293,153.284851 232.323227,153.634735 216.500183,153.467484 
z"/>
<path fill="#FEFEFE" opacity="1.000000" stroke="none" 
	d="
M217.000183,153.467590 
	C232.323227,153.634735 247.175293,153.284851 261.961090,154.115067 
	C276.558746,154.934723 290.424530,159.070175 303.004395,166.858032 
	C325.112183,180.544403 333.334198,201.296219 331.295593,226.097412 
	C328.765472,256.878784 310.148102,276.696503 278.110138,283.872070 
	C269.576996,285.783203 260.687164,286.363281 251.921097,286.896393 
	C243.812729,287.389526 235.650772,287.001434 226.928177,287.001434 
	C226.928177,289.059387 226.928192,290.825439 226.928192,292.591522 
	C226.928177,317.088196 226.935242,341.584839 226.923279,366.081512 
	C226.920181,372.449036 224.703400,374.759613 218.237228,374.815002 
	C207.906052,374.903564 197.573196,374.893158 187.241791,374.819763 
	C180.490875,374.771820 178.523132,372.813812 178.519608,366.235474 
	C178.498703,327.240784 178.499252,288.246124 178.522476,249.251434 
	C178.526291,242.866714 180.386459,241.070419 186.955750,241.011475 
	C193.452332,240.953201 199.949844,240.998749 207.105194,240.998749 
	C206.339844,239.598053 205.820862,238.518539 205.188354,237.510254 
	C197.054565,224.543839 188.811234,211.644455 180.847626,198.574585 
	C179.469711,196.313141 178.684570,193.355728 178.612885,190.693222 
	C178.352844,181.034927 178.477402,171.365112 178.527084,161.700012 
	C178.559174,155.455612 180.199112,153.629074 186.505066,153.522400 
	C196.500885,153.353287 206.501556,153.471069 217.000183,153.467590 
M244.843658,216.680847 
	C248.553696,222.574707 252.254486,228.474411 255.976074,234.360977 
	C260.626068,241.716019 260.669373,241.730804 268.841919,238.495117 
	C269.917206,238.069397 270.948303,237.522980 271.974915,236.984879 
	C280.594757,232.466736 284.033081,226.330460 283.050476,217.248016 
	C282.178131,209.184616 276.702911,202.514175 267.657440,201.278015 
	C256.953827,199.815231 246.039062,199.897232 233.823059,199.234009 
	C237.961578,205.813110 241.193237,210.950516 244.843658,216.680847 
z"/>
<path fill="#2E385F" opacity="1.000000" stroke="none" 
	d="
M244.634277,216.384399 
	C241.193237,210.950516 237.961578,205.813110 233.823059,199.234009 
	C246.039062,199.897232 256.953827,199.815231 267.657440,201.278015 
	C276.702911,202.514175 282.178131,209.184616 283.050476,217.248016 
	C284.033081,226.330460 280.594757,232.466736 271.974915,236.984879 
	C270.948303,237.522980 269.917206,238.069397 268.841919,238.495117 
	C260.669373,241.730804 260.626068,241.716019 255.976074,234.360977 
	C252.254486,228.474411 248.553696,222.574707 244.634277,216.384399 
z"/>
</svg>