<svg version="1.1" id="Layer_1" xmlns="http://www.w3.org/2000/svg" xmlns:xlink="http://www.w3.org/1999/xlink" x="0px" y="0px"
	 width="100%" viewBox="0 0 500 500" enable-background="new 0 0 500 500" xml:space="preserve">
<path fill="#d8daf0" opacity="1.000000" stroke="none" 
	d="
M286.000000,501.000000 
	C190.666687,501.000000 95.833382,501.000000 1.000051,501.000000 
	C1.000034,334.333405 1.000034,167.666794 1.000017,1.000140 
	C167.666565,1.000094 334.333130,1.000094 500.999756,1.000047 
	C500.999847,167.666519 500.999847,334.333038 500.999939,500.999786 
	C429.500000,501.000000 358.000000,501.000000 286.000000,501.000000 
M230.969284,459.674377 
	C270.759460,462.446899 308.971344,456.733398 344.809052,438.399109 
	C388.936218,415.824005 421.423920,382.111603 442.081879,336.972473 
	C458.834137,300.367584 463.980072,261.895844 458.534576,222.405655 
	C451.400238,170.668381 428.068878,126.929092 388.230255,92.827911 
	C336.024689,48.140850 275.485138,32.983387 208.425110,46.132854 
	C151.568344,57.281620 107.131378,88.319519 75.485085,136.655762 
	C43.791271,185.064590 34.303040,238.405197 46.246925,294.819824 
	C58.338242,351.930786 89.774551,396.371307 138.969955,428.003235 
	C166.760818,445.872345 197.233887,456.139709 230.969284,459.674377 
z"/>
<path fill="#7F92DA" opacity="1.000000" stroke="none" 
	d="
M230.522583,459.569580 
	C197.233887,456.139709 166.760818,445.872345 138.969955,428.003235 
	C89.774551,396.371307 58.338242,351.930786 46.246925,294.819824 
	C34.303040,238.405197 43.791271,185.064590 75.485085,136.655762 
	C107.131378,88.319519 151.568344,57.281620 208.425110,46.132854 
	C275.485138,32.983387 336.024689,48.140850 388.230255,92.827911 
	C428.068878,126.929092 451.400238,170.668381 458.534576,222.405655 
	C463.980072,261.895844 458.834137,300.367584 442.081879,336.972473 
	C421.423920,382.111603 388.936218,415.824005 344.809052,438.399109 
	C308.971344,456.733398 270.759460,462.446899 230.522583,459.569580 
M216.500000,153.263321 
	C207.000458,153.263885 197.499786,153.174255 188.001770,153.294739 
	C180.929153,153.384430 178.818130,155.121460 178.315323,160.673935 
	C175.844193,187.962402 177.601028,194.915588 192.831024,218.096817 
	C193.654175,219.349701 194.530014,220.568848 195.327637,221.837463 
	C199.188339,227.977890 203.030685,234.129883 207.331818,241.000244 
	C199.893585,241.000244 193.289627,240.952148 186.686707,241.014374 
	C180.628815,241.071457 178.320953,243.157547 178.312531,249.027710 
	C178.256531,288.026062 178.254150,327.024567 178.312042,366.022919 
	C178.321793,372.593964 180.597488,374.818695 187.016891,374.866669 
	C197.349228,374.943878 207.682922,374.937622 218.015381,374.868744 
	C224.623596,374.824677 226.939255,372.406860 226.941757,365.790405 
	C226.950974,341.458038 226.945587,317.125702 226.945709,292.793335 
	C226.945709,291.019623 226.945724,289.245941 226.945724,287.001129 
	C235.865387,287.001129 244.183411,287.390686 252.448135,286.893616 
	C261.040802,286.376831 269.754761,285.756348 278.107941,283.839905 
	C293.278381,280.359406 307.125854,273.793671 317.447296,261.629822 
	C330.911957,245.761658 333.702637,227.123093 330.433502,207.205658 
	C328.528503,195.599640 323.779999,185.336258 315.422333,176.824493 
	C300.849670,161.983246 282.425018,155.763397 262.431519,154.182297 
	C247.523361,153.003357 232.482025,153.508606 216.500000,153.263321 
z"/>
<path fill="#FEFEFF" opacity="1.000000" stroke="none" 
	d="
M217.000000,153.263580 
	C232.482025,153.508606 247.523361,153.003357 262.431519,154.182297 
	C282.425018,155.763397 300.849670,161.983246 315.422333,176.824493 
	C323.779999,185.336258 328.528503,195.599640 330.433502,207.205658 
	C333.702637,227.123093 330.911957,245.761658 317.447296,261.629822 
	C307.125854,273.793671 293.278381,280.359406 278.107941,283.839905 
	C269.754761,285.756348 261.040802,286.376831 252.448135,286.893616 
	C244.183411,287.390686 235.865387,287.001129 226.945724,287.001129 
	C226.945724,289.245941 226.945709,291.019623 226.945709,292.793335 
	C226.945587,317.125702 226.950974,341.458038 226.941757,365.790405 
	C226.939255,372.406860 224.623596,374.824677 218.015381,374.868744 
	C207.682922,374.937622 197.349228,374.943878 187.016891,374.866669 
	C180.597488,374.818695 178.321793,372.593964 178.312042,366.022919 
	C178.254150,327.024567 178.256531,288.026062 178.312531,249.027710 
	C178.320953,243.157547 180.628815,241.071457 186.686707,241.014374 
	C193.289627,240.952148 199.893585,241.000244 207.331818,241.000244 
	C203.030685,234.129883 199.188339,227.977890 195.327637,221.837463 
	C194.530014,220.568848 193.654175,219.349701 192.831024,218.096817 
	C177.601028,194.915588 175.844193,187.962402 178.315323,160.673935 
	C178.818130,155.121460 180.929153,153.384430 188.001770,153.294739 
	C197.499786,153.174255 207.000458,153.263885 217.000000,153.263580 
M244.834671,216.676453 
	C248.018250,221.731812 251.239594,226.763870 254.377472,231.847412 
	C260.714203,242.113251 262.011597,242.457108 272.892334,236.519928 
	C273.329407,236.281433 273.804565,236.101883 274.212555,235.822662 
	C280.416809,231.576752 283.841064,226.039169 283.139282,218.172562 
	C282.482941,210.814972 278.926208,205.631073 272.280518,202.778732 
	C260.236023,197.609253 247.658310,200.761490 234.094086,199.656326 
	C238.104660,206.023499 241.268921,211.047028 244.834671,216.676453 
z"/>
<path fill="#8093DA" opacity="1.000000" stroke="none" 
	d="
M244.633911,216.373505 
	C241.268921,211.047028 238.104660,206.023499 234.094086,199.656326 
	C247.658310,200.761490 260.236023,197.609253 272.280518,202.778732 
	C278.926208,205.631073 282.482941,210.814972 283.139282,218.172562 
	C283.841064,226.039169 280.416809,231.576752 274.212555,235.822662 
	C273.804565,236.101883 273.329407,236.281433 272.892334,236.519928 
	C262.011597,242.457108 260.714203,242.113251 254.377472,231.847412 
	C251.239594,226.763870 248.018250,221.731812 244.633911,216.373505 
z"/>
</svg>